<svg width="587" height="411" viewBox="0 0 587 411" fill="none" xmlns="http://www.w3.org/2000/svg"><path d="M387.709 116.95a29.163 29.163 0 0 0 3.961 4.321" stroke="#597EFF" stroke-width="2" stroke-miterlimit="10" stroke-linecap="round"/><path d="M402.09 126.607c47.285 10.395 135.816-119.389 125.37 19.632-7.76 103.238-144.658 127.988-217.516 108.582-73.236-19.506-170.232-129.682-247.377-91.181-93.363 46.589-90.745 257.394 92.977 189.444" stroke="#597EFF" stroke-width="2" stroke-miterlimit="10" stroke-linecap="round" stroke-dasharray="14.1 14.1"/><path d="M161.073 350.978a277.401 277.401 0 0 0 5.445-2.198" stroke="#FFB259" stroke-width="2" stroke-miterlimit="10" stroke-linecap="round"/><g opacity=".2" fill="#fff"><path d="M375.922 320.632c0 .075 0 .151-.009.226a2.392 2.392 0 0 1-2.617 2.148L163.498 302.56c-1.234-.126-2.165-1.158-2.165-2.366 0-.076.008-.159.017-.235.042-.445.201-.856.461-1.2.067-.084.126-.167.202-.235l27.577-28.483a2.374 2.374 0 0 1 1.947-.713l160.666 15.647c.73.075 1.376.47 1.779 1.082l21.537 33.232.025.034a2.5 2.5 0 0 1 .378 1.309Z"/><path d="M198.501 275.444c-.101.126-.428.201-.73.176l-8.382-.814c-.302-.033-.453-.151-.344-.277l3.004-3.314c.109-.117.428-.184.721-.159l8.071.788c.294.026.453.143.361.261l-2.701 3.339ZM212.637 282.198c-.092.142-.411.226-.738.201l-8.784-.856c-.319-.033-.487-.168-.386-.31l2.685-3.692c.092-.126.411-.21.721-.176l8.449.822c.31.034.486.16.403.286l-2.35 3.725ZM212.126 288.071c-.093.151-.437.251-.772.218l-9.229-.898c-.327-.034-.52-.185-.411-.336l2.852-4.077c.101-.143.445-.227.755-.201l8.86.864c.319.033.512.176.428.31l-2.483 4.12ZM201.856 293.616c-.109.168-.486.277-.839.244l-9.724-.948c-.344-.034-.528-.202-.402-.37l3.398-4.497c.117-.151.486-.26.822-.226l9.313.906c.335.034.52.185.419.344l-2.987 4.547ZM178.952 299.649c-.151.193-.579.318-.956.276l-10.345-1.006c-.378-.034-.537-.218-.369-.411l5.294-5.84c.151-.168.57-.277.923-.243l9.816.956c.352.034.528.202.386.378l-4.749 5.89ZM193.114 301.033c-.134.193-.545.319-.914.285l-10.337-1.007c-.369-.033-.553-.218-.402-.411l4.639-5.898c.134-.168.537-.285.889-.251l9.808.956c.353.034.546.21.428.378l-4.111 5.948ZM207.277 302.409c-.109.193-.504.319-.881.285l-10.345-1.007c-.369-.033-.57-.218-.445-.411l3.986-5.965c.117-.168.495-.285.847-.252l9.816.957c.353.033.562.21.462.377l-3.44 6.016ZM328.276 314.205c.067.21-.185.352-.554.319l-10.345-1.007c-.369-.033-.713-.235-.763-.445l-1.586-6.502c-.042-.184.201-.319.554-.285l9.816.957c.352.033.696.218.755.411l2.123 6.552ZM342.48 315.581c.092.218-.143.361-.512.319l-10.336-1.007c-.378-.033-.747-.235-.814-.453l-1.024-2.995c-.067-.202.177-.336.537-.302l10.068.981c.361.034.73.235.814.437l1.267 3.02ZM370.888 318.35c.134.218-.067.369-.436.327l-10.336-1.007c-.37-.033-.772-.243-.89-.461l-1.619-3.054c-.109-.202.101-.344.461-.311l10.068.982c.361.034.764.235.89.445l1.862 3.079ZM225.147 304.154c-.084.193-.453.327-.822.294l-14.062-1.368c-.369-.033-.587-.226-.478-.419l3.331-6.024c.092-.177.461-.294.814-.26l13.34 1.3c.352.034.57.21.495.386l-2.618 6.091ZM314.071 312.821c.051.21-.218.352-.587.31l-14.053-1.367c-.369-.034-.696-.235-.722-.445l-.763-6.427c-.025-.184.252-.31.604-.277l13.332 1.301c.352.033.679.218.721.403l1.468 6.502ZM296.167 311.076c.017.209-.268.344-.646.31l-67.312-6.561c-.369-.033-.612-.226-.528-.419l2.508-6.108c.076-.176.428-.294.781-.26l63.872 6.225c.352.034.663.218.679.403l.646 6.41ZM215.214 294.917c-.093.168-.453.285-.806.251l-9.724-.948c-.344-.033-.545-.201-.436-.369l2.903-4.539c.101-.159.461-.26.789-.226l9.312.906c.336.033.537.193.453.344l-2.491 4.581ZM228.561 296.217c-.075.176-.419.285-.763.252l-9.724-.948c-.352-.034-.562-.202-.47-.378l2.4-4.589c.084-.159.428-.26.763-.227l9.313.907c.327.033.545.193.478.352l-1.997 4.631ZM241.919 297.518c-.059.176-.386.293-.739.26l-9.724-.948c-.344-.034-.579-.202-.511-.378l1.904-4.64c.067-.159.403-.268.73-.234l9.313.906c.335.033.57.193.512.352l-1.485 4.682ZM255.267 298.818c-.034.176-.353.294-.697.26l-9.715-.948c-.353-.034-.596-.21-.546-.378l1.41-4.689c.05-.16.369-.269.696-.235l9.313.906c.327.033.579.193.545.352l-1.006 4.732ZM268.615 300.118c-.017.177-.319.294-.663.261l-9.724-.949c-.344-.033-.604-.209-.57-.385l.914-4.732c.034-.16.327-.269.663-.244l9.313.906c.335.034.595.193.57.361l-.503 4.782ZM281.972 301.419c0 .176-.285.302-.637.268l-9.724-.948c-.353-.033-.621-.209-.613-.386l.411-4.782c.017-.168.302-.277.638-.243l9.313.906c.335.033.604.193.604.361l.008 4.824ZM295.32 302.728c.017.184-.252.302-.604.268l-9.716-.948c-.344-.033-.637-.21-.637-.394l-.084-4.833c0-.168.268-.277.604-.243l9.313.906c.335.034.629.201.646.369l.478 4.875ZM308.677 304.028c.033.185-.218.311-.571.277l-9.724-.948c-.344-.034-.654-.21-.679-.394l-.579-4.883c-.017-.168.243-.277.57-.252l9.313.906c.336.034.638.201.671.369l.999 4.925ZM322.025 305.329c.059.184-.176.31-.529.276l-9.723-.948c-.353-.033-.672-.218-.705-.394l-1.074-4.933c-.034-.168.201-.285.537-.252l9.313.906c.335.034.646.202.696.369l1.485 4.976ZM335.373 306.629c.076.185-.151.31-.503.277l-9.716-.948c-.352-.034-.688-.218-.746-.403l-1.578-4.975c-.05-.168.176-.285.512-.252l9.313.906c.335.034.663.202.73.378l1.988 5.017ZM365.451 309.557c.118.193-.075.319-.419.285l-26.487-2.584c-.353-.033-.697-.218-.78-.402l-2.073-5.026c-.075-.176.143-.294.478-.26l25.372 2.475c.335.033.696.201.805.386l3.104 5.126ZM224.794 289.304c-.075.159-.403.252-.738.226l-9.237-.897c-.328-.034-.529-.185-.437-.336l2.4-4.128c.084-.142.411-.235.721-.201l8.868.864c.319.034.512.176.445.319l-2.022 4.153ZM237.48 290.537c-.059.16-.378.26-.713.227l-9.229-.898c-.327-.034-.537-.185-.47-.344l1.955-4.17c.067-.142.378-.235.696-.201l8.86.864c.319.034.537.176.478.319l-1.577 4.203ZM250.149 291.771c-.042.159-.344.26-.671.226l-9.229-.898c-.336-.033-.554-.184-.495-.344l1.501-4.211c.051-.143.353-.235.672-.21l8.859.864c.319.034.546.176.504.319l-1.141 4.254ZM262.826 293.004c-.026.159-.319.26-.646.235l-9.229-.898c-.327-.034-.571-.185-.529-.344l1.049-4.254c.033-.142.327-.243.638-.209l8.868.864c.319.033.553.176.537.327l-.688 4.279ZM275.503 294.246c-.008.159-.285.268-.621.234l-9.229-.897c-.327-.034-.587-.185-.562-.353l.604-4.295c.017-.143.302-.244.621-.21l8.86.864c.319.034.57.176.562.327l-.235 4.33ZM288.18 295.479c.008.168-.26.268-.587.235l-9.229-.898c-.336-.034-.596-.193-.596-.352l.151-4.346c.008-.151.269-.244.587-.218l8.86.864c.319.033.587.176.587.327l.227 4.388ZM300.857 296.712c.026.168-.218.277-.553.243l-9.229-.897c-.336-.034-.613-.193-.621-.353l-.294-4.388c-.008-.151.244-.251.562-.218l8.86.864c.319.034.596.185.621.336l.654 4.413ZM313.534 297.945c.042.168-.201.277-.528.244l-9.229-.898c-.327-.034-.621-.193-.654-.361l-.747-4.43c-.025-.151.21-.251.528-.218l8.86.864c.319.034.613.185.646.336l1.124 4.463ZM326.212 299.179c.058.168-.168.277-.495.243l-9.229-.898c-.336-.033-.638-.193-.68-.36l-1.191-4.472c-.042-.151.184-.252.503-.227l8.86.864c.319.034.621.185.671.336l1.561 4.514ZM338.889 300.421c.076.167-.134.285-.461.251l-9.229-.898c-.336-.033-.655-.192-.713-.36l-1.645-4.522c-.059-.151.159-.261.478-.227l8.86.864c.319.034.638.185.705.344l2.005 4.548ZM351.566 301.654c.092.176-.101.285-.436.251l-9.229-.897c-.327-.034-.663-.193-.739-.369l-2.089-4.564c-.067-.16.126-.261.445-.227l8.86.864c.319.034.646.185.73.344l2.458 4.598ZM224.703 283.372c-.076.143-.395.235-.705.202l-8.784-.856c-.311-.034-.504-.168-.42-.311l2.274-3.733c.075-.126.394-.21.696-.176l8.449.822c.302.033.495.159.428.294l-1.938 3.758ZM236.767 284.547c-.059.142-.361.235-.68.201l-8.784-.856c-.311-.033-.512-.167-.445-.31l1.871-3.775c.067-.126.361-.21.663-.185l8.449.822c.302.034.511.16.453.294l-1.527 3.809ZM248.832 285.721c-.042.143-.336.235-.654.21l-8.785-.856c-.31-.033-.52-.167-.47-.318l1.46-3.809c.051-.135.336-.219.638-.185l8.449.822c.302.034.52.16.478.294l-1.116 3.842ZM260.896 286.896c-.025.143-.31.243-.62.21l-8.785-.856c-.319-.034-.545-.176-.503-.319l1.049-3.851c.033-.134.31-.218.62-.184l8.449.822c.302.025.529.168.504.293l-.714 3.885ZM272.969 288.071c-.008.151-.277.243-.595.209l-8.785-.855c-.31-.034-.553-.177-.528-.319l.646-3.893c.025-.134.285-.218.587-.193l8.449.822c.31.034.545.168.537.302l-.311 3.927ZM285.034 289.245c0 .151-.244.243-.562.218l-8.793-.856c-.319-.033-.57-.176-.554-.327l.235-3.935c.009-.134.26-.218.571-.193l8.448.823c.302.033.554.167.554.302l.101 3.968ZM297.098 290.428c.017.151-.218.252-.537.218l-8.784-.856c-.31-.033-.57-.176-.579-.327l-.168-3.968c-.008-.134.235-.227.537-.193l8.449.822c.302.034.562.168.579.302l.503 4.002ZM309.163 291.603c.034.151-.193.251-.512.218l-8.784-.856c-.319-.034-.587-.176-.612-.327l-.579-4.011c-.017-.134.209-.226.511-.201l8.449.822c.302.034.579.168.613.311l.914 4.044ZM321.228 292.777c.05.151-.168.252-.478.227l-8.784-.856c-.319-.034-.605-.176-.638-.336l-.99-4.052c-.034-.142.184-.226.487-.201l8.448.822c.302.025.587.168.629.31l1.326 4.086ZM333.301 293.952c.067.159-.142.26-.461.226l-8.784-.855c-.311-.034-.613-.185-.663-.336L322 288.893c-.05-.143.16-.235.462-.202l8.448.823c.311.033.604.167.663.31l1.728 4.128ZM345.366 295.126c.084.16-.109.261-.428.227l-8.784-.856c-.319-.033-.629-.184-.697-.335l-1.803-4.128c-.059-.143.134-.235.436-.202l8.448.823c.303.033.613.167.68.31l2.148 4.161ZM200.573 281.023c-.101.143-.445.227-.763.193l-14.893-1.451c-.318-.034-.469-.168-.352-.302l3.297-3.633c.109-.126.453-.202.755-.177l14.322 1.393c.302.034.47.16.377.285l-2.743 3.692ZM353.974 290.588c.084.142-.092.234-.386.209l-14.213-1.384c-.293-.025-.604-.168-.671-.311l-1.829-3.783c-.067-.135.126-.218.411-.185l13.693 1.334c.293.025.595.159.671.294l2.324 3.826ZM199.449 286.829c-.109.151-.47.252-.797.218l-18.651-1.821c-.336-.033-.495-.176-.361-.327l3.633-4.002c.126-.134.487-.226.805-.193l17.913 1.745c.319.034.495.168.394.311l-2.936 4.069ZM188.508 292.316c-.126.168-.52.277-.873.243l-13.105-1.275c-.352-.034-.512-.201-.361-.361l4.019-4.43c.143-.151.529-.251.864-.218l12.552 1.225c.335.034.511.185.386.344l-3.482 4.472ZM210.011 276.568c-.083.126-.402.201-.704.176l-8.373-.814c-.302-.033-.47-.159-.37-.277l2.635-3.347c.092-.118.403-.185.696-.159l8.071.788c.294.025.462.151.386.269l-2.341 3.364ZM221.522 277.684c-.075.126-.377.21-.679.176l-8.382-.814c-.302-.025-.47-.159-.386-.285l2.257-3.381c.076-.118.378-.193.663-.16l8.071.789c.294.025.47.151.403.269l-1.947 3.406ZM233.042 278.808c-.059.126-.361.21-.663.176l-8.382-.814c-.302-.025-.486-.159-.419-.285l1.887-3.423c.068-.117.353-.193.646-.168l8.072.789c.293.025.486.151.436.268l-1.577 3.457ZM244.545 279.932c-.042.135-.327.21-.63.185l-8.381-.814c-.302-.025-.503-.159-.445-.285l1.519-3.457c.05-.117.335-.193.621-.168l8.071.789c.293.025.495.151.453.269l-1.208 3.481ZM256.055 281.048c-.034.134-.302.218-.604.185l-8.382-.814c-.302-.025-.511-.159-.469-.294l1.149-3.49c.042-.126.31-.201.596-.168l8.071.789c.293.025.503.151.47.277l-.831 3.515ZM267.574 282.172c-.016.135-.277.219-.579.185l-8.373-.814c-.302-.033-.528-.159-.495-.293l.772-3.533c.025-.125.285-.201.579-.167l8.071.788c.294.025.512.151.495.277l-.47 3.557ZM279.077 283.297c0 .134-.243.218-.553.193l-8.374-.814c-.302-.034-.537-.16-.52-.294l.403-3.566c.017-.125.26-.201.554-.176l8.071.789c.293.025.52.151.52.277l-.101 3.591ZM290.597 284.413c.008.134-.227.226-.529.193l-8.382-.814c-.302-.034-.545-.16-.545-.294l.034-3.599c0-.126.235-.202.528-.176l8.071.788c.294.025.537.151.546.286l.277 3.616ZM302.099 285.537c.025.134-.201.226-.495.193l-8.381-.814c-.302-.034-.562-.168-.571-.302l-.335-3.633c-.009-.126.218-.21.503-.176l8.071.789c.294.025.537.151.562.285l.646 3.658ZM313.618 286.661c.042.134-.176.227-.478.201l-8.381-.813c-.302-.026-.563-.168-.596-.302l-.713-3.675c-.025-.126.193-.21.478-.185l8.079.789c.286.025.554.159.588.285l1.023 3.7ZM325.129 287.777c.051.143-.151.226-.453.201l-8.381-.814c-.302-.033-.579-.167-.621-.302l-1.082-3.708c-.042-.126.168-.21.461-.185l8.071.789c.294.025.571.16.613.285l1.392 3.734ZM336.641 288.901c.067.143-.126.235-.428.201l-8.382-.813c-.302-.025-.587-.168-.637-.311l-1.452-3.742c-.05-.134.143-.209.428-.184l8.08.788c.285.026.57.16.637.294l1.754 3.767ZM343.629 312.645l1.393 3.188c.042.1.151.21.318.293.168.093.361.143.529.16l10.345 1.007a.717.717 0 0 0 .419-.068c.093-.058.109-.159.059-.26l-1.653-3.213-11.41-1.107ZM354.813 313.341l-1.569-3.054c-.042-.092-.16-.185-.319-.268a1.48 1.48 0 0 0-.503-.151l-9.817-.957c-.159-.017-.31 0-.411.059-.092.059-.117.142-.075.226l1.325 3.029 11.369 1.116ZM345.727 290.957a.602.602 0 0 0-.344.042c-.084.042-.101.1-.059.167l2.206 4.17c.042.076.126.151.269.218.143.067.302.109.445.126l2.29.227 3.297 5.973c.042.084.151.168.302.235.151.076.319.118.478.134l6.217.605c.16.016.294 0 .37-.051.083-.05.092-.126.042-.201l-6.352-10.496a.583.583 0 0 0-.277-.201 1.41 1.41 0 0 0-.436-.118l-8.448-.83Z"/></g><path d="M373.405 318.115c0 .075 0 .151-.009.226a2.392 2.392 0 0 1-2.617 2.148l-209.798-20.446c-1.234-.126-2.165-1.158-2.165-2.366 0-.076.009-.159.017-.235.042-.445.201-.856.461-1.2.067-.084.126-.167.202-.235l27.577-28.483a2.377 2.377 0 0 1 1.947-.713l160.667 15.647c.729.075 1.375.47 1.778 1.082l21.537 33.232.025.034c.244.394.378.847.378 1.309Z" fill="#7CA3DF"/><path d="M195.983 272.927c-.101.126-.428.201-.73.176l-8.381-.814c-.302-.033-.453-.151-.344-.277l3.003-3.314c.109-.117.428-.184.722-.159l8.071.789c.293.025.453.142.361.26l-2.702 3.339ZM210.12 279.681c-.092.142-.411.226-.738.201l-8.784-.856c-.319-.033-.487-.168-.386-.31l2.685-3.692c.092-.126.411-.21.721-.176l8.449.822c.31.034.486.16.402.286l-2.349 3.725ZM209.609 285.554c-.092.151-.436.251-.772.218l-9.229-.898c-.327-.034-.52-.185-.411-.336l2.853-4.077c.1-.143.444-.227.755-.201l8.86.864c.318.033.511.176.427.31l-2.483 4.12ZM199.339 291.099c-.109.168-.487.277-.839.244l-9.724-.948c-.344-.034-.529-.202-.403-.37l3.398-4.497c.117-.151.487-.26.822-.226l9.313.906c.336.034.52.185.42.344l-2.987 4.547ZM176.435 297.132c-.151.193-.579.318-.957.277l-10.344-1.007c-.378-.034-.537-.218-.369-.411l5.294-5.84c.151-.168.57-.277.922-.243l9.817.956c.352.034.528.202.386.378l-4.749 5.89ZM190.597 298.516c-.134.193-.545.319-.914.285l-10.337-1.007c-.369-.033-.553-.218-.402-.411l4.639-5.898c.135-.168.537-.285.89-.251l9.807.956c.353.034.546.21.428.378l-4.111 5.948ZM204.759 299.892c-.109.193-.503.319-.881.285l-10.345-1.007c-.369-.033-.57-.218-.444-.411l3.985-5.965c.117-.168.495-.285.847-.252l9.817.957c.352.033.562.21.461.377l-3.44 6.016ZM325.759 311.688c.067.21-.185.353-.554.319L314.86 311c-.369-.033-.713-.235-.763-.444l-1.586-6.503c-.042-.184.201-.318.554-.285l9.816.957c.352.033.696.218.755.411l2.123 6.552ZM339.963 313.064c.092.218-.143.361-.512.319l-10.336-1.007c-.378-.033-.747-.235-.814-.453l-1.024-2.995c-.067-.202.176-.336.537-.302l10.068.981c.361.034.73.235.814.437l1.267 3.02ZM368.371 315.833c.134.218-.067.369-.437.327l-10.336-1.007c-.369-.033-.772-.243-.889-.461l-1.62-3.054c-.109-.202.101-.344.462-.311l10.068.982c.361.034.763.235.889.445l1.863 3.079ZM222.629 301.637c-.084.193-.453.327-.822.294l-14.061-1.368c-.37-.033-.588-.226-.479-.419l3.331-6.024c.092-.177.462-.294.814-.26l13.34 1.3c.352.034.57.21.495.386l-2.618 6.091ZM311.555 310.304c.05.21-.218.352-.588.31l-14.053-1.367c-.369-.034-.696-.235-.721-.445l-.764-6.427c-.025-.184.252-.31.604-.277l13.332 1.301c.352.033.68.218.721.403l1.469 6.502ZM293.65 308.559c.017.209-.269.344-.646.31l-67.312-6.561c-.37-.033-.613-.226-.529-.419l2.509-6.108c.075-.176.428-.294.78-.26l63.872 6.225c.353.034.663.218.68.403l.646 6.41ZM212.696 292.4c-.092.168-.453.285-.805.251l-9.724-.948c-.344-.033-.545-.201-.436-.369l2.903-4.539c.1-.159.461-.26.788-.226l9.313.906c.336.033.537.193.453.344l-2.492 4.581ZM226.044 293.7c-.075.176-.419.285-.763.252l-9.724-.948c-.352-.034-.562-.202-.47-.378l2.4-4.589c.084-.159.428-.26.763-.227l9.313.907c.327.033.545.193.478.352l-1.997 4.631ZM239.401 295.001c-.059.176-.386.293-.738.26l-9.724-.948c-.344-.034-.579-.202-.512-.378l1.905-4.64c.067-.159.402-.268.729-.234l9.313.906c.336.033.571.193.512.352l-1.485 4.682ZM252.749 296.301c-.033.176-.352.294-.696.26l-9.715-.948c-.353-.034-.596-.21-.546-.377l1.41-4.69c.05-.16.369-.269.696-.235l9.313.906c.327.033.579.193.545.352l-1.007 4.732ZM266.098 297.601c-.017.177-.319.294-.663.261l-9.724-.948c-.344-.034-.604-.21-.57-.386l.914-4.732c.034-.16.327-.269.663-.244l9.313.906c.335.034.595.193.57.361l-.503 4.782ZM279.455 298.902c0 .176-.286.302-.638.268l-9.724-.948c-.352-.033-.621-.209-.612-.386l.411-4.782c.017-.168.302-.277.637-.243l9.313.906c.336.034.604.193.604.361l.009 4.824ZM292.803 300.211c.017.184-.252.302-.604.268l-9.716-.948c-.344-.033-.637-.21-.637-.394l-.084-4.833c0-.168.268-.277.604-.243l9.313.906c.335.034.629.201.646.369l.478 4.875ZM306.16 301.511c.033.185-.219.311-.571.277l-9.724-.948c-.344-.034-.654-.21-.679-.394l-.579-4.883c-.017-.168.243-.277.57-.252l9.313.906c.336.034.638.201.671.369l.999 4.925ZM319.508 302.812c.059.184-.176.31-.529.276l-9.724-.948c-.352-.033-.671-.218-.704-.394l-1.074-4.933c-.034-.168.201-.285.537-.252l9.313.906c.335.034.646.202.696.369l1.485 4.976ZM332.857 304.112c.075.185-.151.31-.504.277l-9.715-.948c-.353-.034-.688-.218-.747-.403l-1.577-4.975c-.051-.168.176-.285.511-.252l9.313.906c.336.034.663.202.73.378l1.989 5.017ZM362.934 307.04c.118.193-.075.319-.419.285l-26.487-2.584c-.353-.033-.697-.218-.781-.402l-2.072-5.026c-.075-.176.143-.294.478-.26l25.371 2.475c.336.034.697.201.806.386l3.104 5.126ZM222.277 286.787c-.075.159-.403.252-.738.226l-9.237-.897c-.328-.034-.529-.185-.437-.336l2.4-4.128c.084-.142.411-.235.721-.201l8.868.864c.319.034.512.176.445.319l-2.022 4.153ZM234.962 288.02c-.058.16-.377.26-.713.227l-9.229-.898c-.327-.034-.537-.185-.469-.344l1.954-4.17c.068-.142.378-.235.697-.201l8.86.864c.318.034.537.176.478.319l-1.578 4.203ZM247.631 289.254c-.042.159-.344.26-.671.226l-9.229-.898c-.335-.033-.554-.184-.495-.344l1.502-4.211c.05-.143.352-.235.671-.21l8.86.864c.319.034.545.176.503.319l-1.141 4.254ZM260.309 290.487c-.025.159-.319.26-.646.235l-9.229-.898c-.327-.034-.57-.185-.528-.344l1.048-4.254c.034-.142.328-.243.638-.209l8.868.864c.319.033.554.176.537.327l-.688 4.279ZM272.986 291.729c-.009.159-.285.268-.621.234l-9.229-.897c-.327-.034-.587-.185-.562-.353l.604-4.295c.017-.143.302-.244.621-.21l8.86.864c.318.034.57.176.562.327l-.235 4.33ZM285.663 292.962c.008.168-.26.268-.587.235l-9.229-.898c-.336-.033-.596-.193-.596-.352l.151-4.346c.008-.151.268-.244.587-.218l8.86.864c.319.033.587.176.587.327l.227 4.388ZM298.34 294.195c.025.168-.218.277-.554.243l-9.229-.897c-.335-.034-.612-.193-.621-.353l-.293-4.388c-.009-.151.243-.251.562-.218l8.86.864c.318.034.595.185.621.336l.654 4.413ZM311.017 295.428c.042.168-.201.277-.528.244l-9.229-.898c-.327-.033-.621-.193-.655-.361l-.746-4.43c-.025-.151.21-.251.528-.218l8.86.864c.319.034.613.185.646.336l1.124 4.463ZM323.695 296.662c.058.168-.168.277-.495.243l-9.229-.898c-.336-.033-.638-.193-.68-.36l-1.191-4.472c-.042-.151.184-.252.503-.227l8.86.864c.319.034.621.185.671.336l1.561 4.514ZM336.372 297.904c.075.167-.134.285-.462.251l-9.228-.898c-.336-.033-.655-.192-.714-.36l-1.644-4.522c-.059-.151.159-.261.478-.227l8.86.864c.319.034.638.185.705.344l2.005 4.548ZM349.049 299.137c.092.176-.101.285-.436.252l-9.229-.898c-.328-.034-.663-.193-.739-.369l-2.089-4.564c-.067-.16.126-.261.445-.227l8.86.864c.318.034.646.185.73.344l2.458 4.598ZM222.185 280.855c-.076.143-.394.235-.705.202l-8.784-.856c-.31-.034-.503-.168-.42-.311l2.274-3.733c.076-.126.394-.21.697-.176l8.448.822c.302.033.495.159.428.294l-1.938 3.758ZM234.25 282.03c-.059.142-.361.235-.68.201l-8.784-.856c-.311-.033-.512-.167-.445-.31l1.871-3.775c.067-.126.361-.21.663-.185l8.448.822c.302.034.512.16.453.294l-1.526 3.809ZM246.314 283.204c-.042.143-.335.235-.654.21l-8.784-.856c-.311-.033-.52-.167-.47-.318l1.46-3.809c.05-.135.335-.219.637-.185l8.449.822c.302.034.52.16.478.294l-1.116 3.842ZM258.379 284.379c-.025.143-.31.243-.621.21l-8.784-.856c-.319-.034-.545-.176-.503-.319l1.049-3.851c.033-.134.31-.218.62-.184l8.449.822c.302.025.529.168.503.293l-.713 3.885ZM270.452 285.554c-.008.151-.277.243-.595.209l-8.785-.855c-.31-.034-.553-.177-.528-.319l.646-3.893c.025-.134.285-.218.587-.193l8.449.822c.31.034.545.168.537.302l-.311 3.927ZM282.517 286.728c0 .151-.244.243-.562.218l-8.793-.855c-.319-.034-.571-.177-.554-.328l.235-3.935c.009-.134.26-.218.571-.193l8.448.823c.302.033.554.167.554.302l.101 3.968ZM294.582 287.911c.017.151-.218.252-.537.218l-8.784-.855c-.311-.034-.571-.177-.579-.328l-.168-3.968c-.009-.134.235-.227.537-.193l8.448.822c.303.034.563.168.579.302l.504 4.002ZM306.646 289.086c.034.151-.193.251-.512.218l-8.784-.856c-.319-.033-.587-.176-.613-.327l-.578-4.01c-.017-.135.209-.227.511-.202l8.449.822c.302.034.579.168.612.311l.915 4.044ZM318.711 290.26c.051.151-.167.252-.478.227l-8.784-.856c-.319-.033-.604-.176-.638-.336l-.99-4.052c-.033-.142.185-.226.487-.201l8.449.822c.302.025.587.168.629.31l1.325 4.086ZM330.784 291.435c.067.159-.142.26-.461.226l-8.784-.855c-.311-.034-.613-.185-.663-.336l-1.393-4.094c-.05-.143.159-.235.462-.202l8.448.823c.311.033.604.167.663.31l1.728 4.128ZM342.849 292.609c.084.16-.109.261-.428.227l-8.784-.856c-.319-.033-.63-.184-.697-.335l-1.804-4.128c-.058-.143.135-.235.437-.202l8.448.823c.302.033.613.167.68.31l2.148 4.161ZM198.055 278.506c-.1.143-.444.227-.763.193l-14.892-1.451c-.319-.034-.47-.168-.353-.302l3.298-3.633c.109-.126.453-.202.755-.176l14.321 1.392c.302.034.47.16.378.285l-2.744 3.692ZM351.457 288.071c.084.142-.093.234-.386.209l-14.213-1.384c-.293-.025-.604-.168-.671-.31l-1.829-3.784c-.067-.135.126-.218.411-.185l13.693 1.334c.293.025.595.16.671.294l2.324 3.826ZM196.931 284.312c-.109.151-.47.252-.797.218l-18.65-1.821c-.336-.033-.496-.176-.361-.327l3.633-4.002c.125-.134.486-.226.805-.193l17.912 1.745c.319.034.495.168.395.311l-2.937 4.069ZM185.991 289.799c-.126.168-.52.277-.873.243l-13.105-1.275c-.352-.034-.512-.201-.361-.361l4.019-4.43c.143-.151.529-.251.864-.218l12.552 1.225c.335.034.511.185.386.344l-3.482 4.472ZM207.494 274.051c-.084.126-.403.201-.705.176l-8.373-.814c-.302-.033-.47-.159-.369-.276l2.634-3.348c.093-.118.403-.185.697-.159l8.071.788c.293.025.461.151.386.269l-2.341 3.364ZM219.005 275.167c-.075.126-.377.21-.679.176l-8.382-.814c-.302-.025-.47-.159-.386-.285l2.257-3.381c.076-.118.378-.193.663-.16l8.071.789c.294.025.47.151.403.269l-1.947 3.406ZM230.524 276.291c-.058.126-.36.21-.662.176l-8.382-.814c-.302-.025-.486-.159-.419-.285l1.887-3.423c.067-.117.353-.193.646-.168l8.071.789c.294.025.487.151.437.268l-1.578 3.457ZM242.027 277.415c-.042.135-.327.21-.629.185l-8.382-.814c-.302-.025-.503-.159-.444-.285l1.518-3.457c.051-.117.336-.193.621-.168l8.071.789c.294.025.495.151.453.269l-1.208 3.481ZM253.538 278.531c-.034.134-.302.218-.604.185l-8.382-.814c-.302-.025-.511-.159-.47-.294l1.15-3.49c.042-.126.31-.201.596-.168l8.071.789c.293.025.503.151.47.277l-.831 3.515ZM265.058 279.655c-.017.135-.277.219-.579.185l-8.373-.814c-.302-.033-.529-.159-.495-.293l.772-3.533c.025-.125.285-.201.578-.167l8.072.788c.293.025.511.151.495.277l-.47 3.557ZM276.56 280.78c0 .134-.243.218-.554.193l-8.373-.814c-.302-.034-.537-.16-.52-.294l.403-3.565c.017-.126.26-.202.554-.177l8.071.789c.293.025.52.151.52.277l-.101 3.591ZM288.079 281.896c.008.134-.227.226-.529.193l-8.381-.814c-.302-.034-.545-.16-.545-.294l.033-3.599c0-.126.235-.202.529-.176l8.071.788c.293.025.537.151.545.286l.277 3.616ZM299.582 283.02c.025.134-.202.226-.495.193l-8.382-.814c-.302-.034-.562-.168-.57-.302l-.336-3.633c-.008-.126.218-.21.503-.176l8.072.789c.293.025.537.151.562.285l.646 3.658ZM311.101 284.144c.042.134-.176.227-.478.201l-8.382-.813c-.302-.026-.562-.168-.595-.302l-.713-3.675c-.026-.126.193-.21.478-.185l8.079.789c.286.025.554.159.588.285l1.023 3.7ZM322.612 285.26c.05.143-.151.226-.453.201l-8.382-.814c-.302-.033-.579-.167-.621-.302l-1.082-3.708c-.042-.126.168-.21.462-.184l8.071.788c.293.025.57.16.612.285l1.393 3.734ZM334.123 286.384c.067.143-.126.235-.428.202l-8.381-.814c-.302-.025-.587-.168-.638-.311l-1.451-3.742c-.051-.134.142-.209.428-.184l8.079.788c.285.026.571.16.638.294l1.753 3.767ZM341.111 310.128l1.393 3.188c.042.1.151.21.319.293.168.093.361.143.528.16l10.345 1.007a.73.73 0 0 0 .42-.067c.092-.059.109-.16.058-.261l-1.652-3.213-11.411-1.107ZM352.296 310.824l-1.569-3.054c-.042-.092-.16-.185-.319-.268a1.478 1.478 0 0 0-.504-.151l-9.816-.957c-.159-.017-.31 0-.411.059-.092.059-.117.142-.075.226l1.325 3.029 11.369 1.116ZM343.209 288.44a.603.603 0 0 0-.344.042c-.084.042-.101.1-.059.167l2.207 4.17c.042.076.126.151.268.218.143.067.302.109.445.126l2.29.227 3.298 5.973c.042.084.151.168.302.235a1.4 1.4 0 0 0 .478.135l6.217.604c.159.016.293 0 .369-.051.084-.05.092-.126.042-.201l-6.351-10.496a.59.59 0 0 0-.277-.201 1.425 1.425 0 0 0-.436-.118l-8.449-.83Z" fill="#fff"/><g opacity=".2" fill="#fff"><path d="m85.641 279.512-22.53 28.135c-.674.836-1.9.974-2.735.299l-47.413-37.967a1.947 1.947 0 0 1-.3-2.736l22.53-28.135a1.947 1.947 0 0 1 2.736-.3l47.412 37.968c.837.674.975 1.9.3 2.736Z"/><path d="m37.674 241.66 18.76 15.025.008.008 10.437 8.364 9.15 7.327c.711.565.825 1.606.26 2.317l-8.019 10.011-.65.811-1.247 1.564-3.322 4.149-6.695 8.355a1.651 1.651 0 0 1-2.316.259l-35.528-28.465-2.827-2.26a1.65 1.65 0 0 1-.26-2.316l1.434-1.79 1.248-1.556 14.08-17.571 3.17-3.965a1.653 1.653 0 0 1 2.317-.267ZM72.588 287.523a3.613 3.613 0 0 1-4.519 5.637 3.613 3.613 0 0 1-.559-5.078c1.24-1.556 3.514-1.807 5.078-.559Z"/><path opacity=".7" d="m32.187 245.883 24.255 10.802.008.008 10.438 8.364 1.39 19.655-.649.812-49.514-22.069 14.072-17.572ZM16.867 265.011l49.514 22.077-3.322 4.148-44.54-19.851-2.826-2.259a1.652 1.652 0 0 1-.26-2.317l1.434-1.798Z"/></g><path d="m83.115 282.019-22.53 28.135c-.674.836-1.9.974-2.736.299l-47.413-37.967a1.947 1.947 0 0 1-.3-2.736l22.53-28.135a1.947 1.947 0 0 1 2.736-.3l47.413 37.968c.836.674.974 1.9.3 2.736Z" fill="#50B4EC"/><path d="m35.147 244.167 18.76 15.025.008.008 10.438 8.364 9.15 7.327c.71.565.824 1.606.259 2.317l-8.019 10.011-.649.811-1.248 1.564-3.322 4.149-6.695 8.355a1.651 1.651 0 0 1-2.316.259l-35.528-28.465-2.827-2.26a1.65 1.65 0 0 1-.26-2.316l1.434-1.79 1.248-1.556 14.08-17.571 3.17-3.965a1.653 1.653 0 0 1 2.317-.267Z" fill="url(#a)"/><path d="M70.061 290.03a3.614 3.614 0 0 1-4.519 5.637 3.613 3.613 0 0 1 4.52-5.637Z" fill="#9EABD9"/><path opacity=".7" d="m29.66 248.39 24.255 10.802.008.008 10.438 8.364 1.39 19.655-.648.812-49.515-22.069L29.66 248.39Z" fill="url(#b)"/><path opacity=".7" d="m14.34 267.518 49.515 22.077-3.322 4.148-44.54-19.851-2.827-2.259a1.652 1.652 0 0 1-.259-2.317l1.433-1.798Z" fill="url(#c)"/><g opacity=".2"><path d="M134.183 3.04 77.417 21.532c-5.57 1.812-8.608 7.794-6.795 13.365L82.326 70.83c1.812 5.57 7.794 8.608 13.365 6.795l32.385-10.546a1.688 1.688 0 0 1 1.585.294l10.211 8.28c2.198 1.78 5.495.706 6.225-2.03l3.381-12.702a1.693 1.693 0 0 1 1.108-1.174l1.862-.604c5.563-1.813 8.608-7.795 6.796-13.366L147.54 9.844c-1.804-5.57-7.786-8.616-13.357-6.804Z" fill="#fff"/><path d="m80.924 38.806 60.609-19.741M84.683 50.36l60.609-19.742M88.45 61.912l40.221-13.096" stroke="#fff" stroke-width="4" stroke-miterlimit="10" stroke-linecap="round"/></g><path d="M131.666.523 74.9 19.015c-5.57 1.812-8.608 7.794-6.796 13.365l11.704 35.934c1.813 5.57 7.795 8.608 13.365 6.796l32.386-10.547a1.688 1.688 0 0 1 1.585.294l10.211 8.28c2.198 1.78 5.495.706 6.225-2.03l3.381-12.702a1.693 1.693 0 0 1 1.108-1.174l1.862-.604c5.571-1.813 8.608-7.795 6.796-13.366L145.023 7.328c-1.804-5.571-7.786-8.617-13.357-6.805Z" fill="#FFB259"/><path d="m78.407 36.29 60.609-19.742M82.166 47.842l60.609-19.741M85.933 59.395 126.154 46.3" stroke="#fff" stroke-width="4" stroke-miterlimit="10" stroke-linecap="round"/><g opacity=".2"><path d="M394.203 293.885c-7.945 3.884-16.561-.495-18.139-8.65l-2.215-11.503a8.317 8.317 0 0 1 .034-3.347c.831-3.868 4.321-7.14 8.7-8.239a13.155 13.155 0 0 1 3.256-.403c4.161 0 8.054 1.946 9.816 5.269l4.74 8.927a12.282 12.282 0 0 1 1.326 4.153c.738 5.294-1.88 11.041-7.518 13.793Z" fill="#fff"/><path d="m382.776 262.658 3.071 8.398M394.564 268.304l-18.533 5.839" stroke="#fff" stroke-miterlimit="10" stroke-linecap="round"/></g><path d="M391.686 291.368c-7.945 3.884-16.562-.495-18.139-8.65l-2.215-11.503a8.317 8.317 0 0 1 .034-3.347c.83-3.868 4.321-7.14 8.7-8.239a13.147 13.147 0 0 1 3.255-.403c4.162 0 8.055 1.947 9.817 5.269l4.74 8.927a12.282 12.282 0 0 1 1.326 4.153c.738 5.294-1.88 11.041-7.518 13.793Z" fill="#fff"/><path d="m380.259 260.141 3.071 8.398M392.047 265.787l-18.533 5.839" stroke="#B8C2E6" stroke-miterlimit="10" stroke-linecap="round"/><path d="m369.571 91.906 6.56 29.751c.244 1.107 1.729 1.309 2.266.31l5.26-9.858c.193-.361.554-.604.965-.638l11.133-1.023c1.125-.101 1.511-1.552.588-2.207l-24.885-17.585c-.906-.646-2.122.168-1.887 1.25Z" fill="#597EFF" opacity=".2"/><path d="m367.053 89.39 6.561 29.75c.244 1.107 1.729 1.309 2.266.31l5.26-9.858c.193-.361.554-.604.965-.638l11.133-1.023c1.125-.101 1.511-1.552.588-2.207l-24.885-17.585c-.906-.646-2.122.168-1.888 1.25Z" fill="#597EFF"/><g opacity=".2"><path d="M351.767 19.636c8.231-16.076 32.125-20.287 53.369-9.406 21.243 10.882 31.789 32.73 23.55 48.805-8.23 16.075-32.125 20.286-53.368 9.405a57.108 57.108 0 0 1-4.85-2.803l-8.255 4.086c-2.24 1.108-4.942-.998-5.085-3.985l-.637-13.113a44.518 44.518 0 0 1-2.274-3.44l-.05-.034.05.034c-5.78-9.69-7.072-20.522-2.45-29.55Z" fill="#fff"/><path d="m416.537 38.429-21.05 5.512-5.806 1.519a3.437 3.437 0 0 1-4.102-2.106l-2.182-5.663-7.802-20.237a2.392 2.392 0 0 1 1.837.168l37.906 19.414a2.438 2.438 0 0 1 1.199 1.393Z" fill="#fff"/><path d="m416.411 40.384-11.544 22.535a2.485 2.485 0 0 1-3.339 1.074l-37.906-19.414a2.48 2.48 0 0 1-1.082-3.34l11.544-22.535a2.463 2.463 0 0 1 1.511-1.242l7.802 20.237 2.181 5.663a3.451 3.451 0 0 0 4.103 2.106l5.806-1.519 21.05-5.512c.218.621.193 1.317-.126 1.947Z" fill="#fff"/><path d="m363.068 42.976 20.321-5.285M402.996 63.43l-7.567-19.573M375.821 18.075l10.446 27.166c.226.596.872.923 1.485.764l27.93-7.341" stroke="#fff" stroke-miterlimit="10" stroke-linecap="round"/></g><path d="M349.25 17.119c8.231-16.076 32.125-20.287 53.368-9.406 21.244 10.882 31.79 32.73 23.551 48.804-8.231 16.076-32.125 20.287-53.368 9.406a57.107 57.107 0 0 1-4.85-2.803l-8.255 4.086c-2.24 1.108-4.942-.998-5.085-3.985l-.637-13.113a44.208 44.208 0 0 1-2.274-3.44l-.05-.034.05.034c-5.781-9.69-7.073-20.522-2.45-29.55Z" fill="#FF6A59"/><path d="m414.02 35.912-21.05 5.512-5.806 1.519a3.437 3.437 0 0 1-4.102-2.106l-2.182-5.663-7.802-20.237a2.393 2.393 0 0 1 1.837.168l37.906 19.414a2.441 2.441 0 0 1 1.199 1.393Z" fill="#F5F9FF"/><path d="M413.894 37.867 402.35 60.402a2.485 2.485 0 0 1-3.339 1.074l-37.906-19.414a2.478 2.478 0 0 1-1.082-3.34l11.544-22.535a2.464 2.464 0 0 1 1.51-1.242l7.803 20.237 2.181 5.663a3.45 3.45 0 0 0 4.103 2.106l5.806-1.519 21.05-5.512c.218.621.193 1.317-.126 1.947Z" fill="#F5F9FF"/><path d="m360.551 40.46 20.321-5.286M400.479 60.914l-7.567-19.574M373.304 15.558l10.446 27.166c.226.596.872.923 1.485.764l27.93-7.341" stroke="#B8C2E6" stroke-miterlimit="10" stroke-linecap="round"/><g opacity=".2" fill="#fff"><path d="M169.983 363.697c-8.247 16.067-32.141 20.262-53.376 9.363-21.235-10.898-31.756-32.754-23.509-48.829 8.248-16.067 32.142-20.262 53.377-9.363a57.14 57.14 0 0 1 4.849 2.802l8.256-4.077c2.24-1.108 4.942 1.006 5.084 3.985l.629 13.113a44.114 44.114 0 0 1 2.274 3.44l.05.034-.05-.034c5.756 9.716 7.039 20.555 2.416 29.566Z"/><path d="M149.118 341.246h-2.45a15.896 15.896 0 0 0-2.71-6.544l1.728-1.729a2.728 2.728 0 1 0-3.859-3.859l-1.729 1.728a16.142 16.142 0 0 0-6.544-2.71v-2.45a2.732 2.732 0 0 0-2.726-2.726 2.732 2.732 0 0 0-2.727 2.726v2.45a15.896 15.896 0 0 0-6.544 2.71l-1.729-1.728a2.728 2.728 0 1 0-3.859 3.859l1.728 1.729a16.018 16.018 0 0 0-2.71 6.544h-2.449a2.732 2.732 0 0 0-2.727 2.727 2.732 2.732 0 0 0 2.727 2.726h2.449a15.896 15.896 0 0 0 2.71 6.544l-1.728 1.729a2.728 2.728 0 1 0 3.859 3.859l1.729-1.728a16.018 16.018 0 0 0 6.544 2.71v2.449a2.732 2.732 0 0 0 2.727 2.727 2.732 2.732 0 0 0 2.726-2.727v-2.449a15.896 15.896 0 0 0 6.544-2.71l1.729 1.728a2.728 2.728 0 1 0 3.859-3.859l-1.728-1.737a16.018 16.018 0 0 0 2.71-6.544h2.45a2.732 2.732 0 0 0 2.726-2.727 2.719 2.719 0 0 0-2.726-2.718Zm-18.282 11.393a8.666 8.666 0 1 1 8.667-8.666 8.666 8.666 0 0 1-8.667 8.666Z"/></g><path d="M167.466 361.18c-8.247 16.067-32.141 20.262-53.376 9.363-21.235-10.898-31.756-32.754-23.509-48.829 8.247-16.067 32.142-20.262 53.377-9.363a57.14 57.14 0 0 1 4.849 2.802l8.256-4.077c2.24-1.108 4.941 1.006 5.084 3.985l.629 13.113a44.114 44.114 0 0 1 2.274 3.44l.05.034-.05-.034c5.755 9.716 7.039 20.555 2.416 29.566Z" fill="#42BDA6"/><path d="M146.601 338.729h-2.45a15.896 15.896 0 0 0-2.71-6.544l1.728-1.729a2.728 2.728 0 1 0-3.859-3.859l-1.728 1.728a16.146 16.146 0 0 0-6.545-2.71v-2.449a2.732 2.732 0 0 0-2.726-2.727 2.732 2.732 0 0 0-2.727 2.727v2.449a15.896 15.896 0 0 0-6.544 2.71l-1.729-1.728a2.728 2.728 0 1 0-3.859 3.859l1.728 1.729a16.017 16.017 0 0 0-2.709 6.544h-2.45a2.732 2.732 0 0 0-2.727 2.727 2.732 2.732 0 0 0 2.727 2.726h2.45a15.895 15.895 0 0 0 2.709 6.544l-1.728 1.729a2.73 2.73 0 0 0 3.859 3.859l1.729-1.728a16.005 16.005 0 0 0 6.544 2.71v2.45a2.732 2.732 0 0 0 2.727 2.726 2.732 2.732 0 0 0 2.726-2.726v-2.45a15.9 15.9 0 0 0 6.545-2.71l1.728 1.728a2.728 2.728 0 1 0 3.859-3.859l-1.728-1.737a16.005 16.005 0 0 0 2.71-6.544h2.45a2.732 2.732 0 0 0 2.726-2.727 2.719 2.719 0 0 0-2.726-2.718Zm-18.282 11.393a8.666 8.666 0 1 1 8.667-8.666 8.666 8.666 0 0 1-8.667 8.666Z" fill="#E0E7FF"/><path d="M291.679 212.696c-7.291 0-14.833-1.083-22.519-3.281a1.259 1.259 0 0 1-.864-1.56 1.259 1.259 0 0 1 1.561-.864c27.67 7.936 53.569.855 71.071-19.415 16.142-18.701 21.973-45.246 13.877-63.117-4.531-9.984-9.397-15.555-15.312-17.535-10.798-3.599-25.69 4.556-48.242 16.897-14.397 7.879-32.31 17.695-54.425 27.276-36.555 15.848-68.336 23.039-94.429 21.361-27.007-1.737-41.354-12.518-48.628-21.26-11.376-13.668-13.306-32.176-4.69-44.995 7.585-11.285 21.546-15.035 37.352-10.026 20.413 6.468 57.27 8.541 88.22-.017 6.679-1.846 11.15-6.351 12.61-12.694 2.215-9.665-2.936-21.394-13.449-30.606a1.269 1.269 0 0 1-.117-1.78 1.26 1.26 0 0 1 1.778-.117c11.201 9.825 16.663 22.494 14.238 33.065-1.67 7.282-6.779 12.45-14.389 14.556-31.42 8.684-68.881 6.57-89.646-.016-14.892-4.715-27.468-1.427-34.499 9.036-7.996 11.897-6.133 29.163 4.53 41.983 6.956 8.365 20.732 18.684 46.85 20.362 25.698 1.653 57.076-5.462 93.27-21.151 22.007-9.539 39.869-19.322 54.216-27.175 23.131-12.669 38.409-21.033 50.247-17.082 6.636 2.215 11.972 8.214 16.813 18.878 8.491 18.726 2.492 46.396-14.262 65.802-13.307 15.395-31.261 23.466-51.162 23.475Z" fill="#fff" opacity=".2"/><path d="M289.162 210.179c-7.291 0-14.834-1.083-22.519-3.281a1.259 1.259 0 0 1-.864-1.56 1.26 1.26 0 0 1 1.561-.864c27.67 7.936 53.569.855 71.071-19.415 16.142-18.701 21.973-45.246 13.876-63.117-4.53-9.984-9.396-15.555-15.311-17.535-10.798-3.599-25.69 4.556-48.242 16.897-14.397 7.879-32.31 17.695-54.425 27.276-36.555 15.849-68.336 23.039-94.429 21.361-27.007-1.737-41.354-12.518-48.628-21.26-11.376-13.667-13.306-32.176-4.69-44.995 7.585-11.285 21.546-15.035 37.352-10.026 20.413 6.468 57.27 8.541 88.22-.017 6.678-1.846 11.15-6.351 12.61-12.694 2.215-9.665-2.936-21.394-13.449-30.606a1.269 1.269 0 0 1-.117-1.78 1.26 1.26 0 0 1 1.778-.117c11.201 9.825 16.663 22.494 14.238 33.065-1.67 7.282-6.779 12.45-14.389 14.557-31.42 8.683-68.881 6.569-89.646-.017-14.892-4.715-27.468-1.427-34.5 9.036-7.995 11.897-6.132 29.163 4.531 41.983 6.956 8.365 20.732 18.684 46.85 20.362 25.698 1.653 57.076-5.462 93.27-21.151 22.007-9.539 39.869-19.322 54.216-27.175 23.131-12.668 38.409-21.033 50.247-17.082 6.636 2.215 11.972 8.214 16.813 18.878 8.491 18.726 2.492 46.396-14.263 65.802-13.306 15.395-31.26 23.466-51.161 23.475Z" fill="#fff"/><g opacity=".2" fill="#fff"><path d="m283.138 214.088-4.908-16.494-59.887 17.812 4.908 16.494a7.368 7.368 0 0 1-2.064 7.509l-17.611 16.218c-.956.881.286 3.616 1.527 3.247l107.97-32.117c1.242-.369.789-3.339-.495-3.557l-23.609-3.96a7.334 7.334 0 0 1-5.831-5.152Z"/><path d="m335.424 190.781-168.696 50.172c-3.071.914-6.309-.839-7.215-3.91l-31.538-106.015c-.914-3.07.839-6.309 3.91-7.215l168.696-50.172a5.812 5.812 0 0 1 7.223 3.91l31.53 106.015c.914 3.071-.839 6.309-3.91 7.215Z"/><path d="m324.886 170.159-32.678 9.715-41.388 12.317-3.675 1.09-9.765 2.912-59.77 17.778-13.382 3.977a4.978 4.978 0 0 1-6.192-3.356l-11.553-38.82-12.719-42.78a4.99 4.99 0 0 1 3.356-6.201l20.581-6.124 41.387-12.308 59.77-17.778 9.766-2.903 3.674-1.091 25.481-7.576a4.983 4.983 0 0 1 6.191 3.356l4.799 16.125 19.473 65.475a4.983 4.983 0 0 1-3.356 6.192Z"/><path opacity=".7" d="m308.761 98.484-16.553 81.39-41.388 12.317 21.478-105.612 25.481-7.576a4.983 4.983 0 0 1 6.191 3.356l4.791 16.125ZM199.088 108.35 177.61 213.962l-13.382 3.977a4.976 4.976 0 0 1-6.192-3.356l-11.553-38.82 11.217-55.105 41.388-12.308ZM268.623 87.67l-21.478 105.603-9.766 2.911 21.479-105.612 9.765-2.903Z"/></g><path d="m280.621 211.571-4.908-16.494-59.887 17.812 4.908 16.494a7.368 7.368 0 0 1-2.064 7.509l-17.611 16.218c-.956.881.286 3.616 1.527 3.247l107.97-32.117c1.242-.369.789-3.339-.495-3.557l-23.609-3.96a7.334 7.334 0 0 1-5.831-5.152Z" fill="#7CA3DF"/><path d="m332.907 188.264-168.696 50.172c-3.071.914-6.309-.839-7.215-3.91l-31.538-106.015a5.8 5.8 0 0 1 3.91-7.215l168.695-50.172a5.813 5.813 0 0 1 7.224 3.91l31.529 106.015a5.8 5.8 0 0 1-3.909 7.215Z" fill="#7CA3DF"/><path d="m322.369 167.642-32.678 9.715-41.388 12.317-3.675 1.09-9.765 2.912-59.77 17.778-13.382 3.977c-2.634.78-5.412-.713-6.192-3.356l-11.553-38.82-12.719-42.78a4.99 4.99 0 0 1 3.356-6.201l20.581-6.124 41.387-12.308 59.77-17.778 9.766-2.903 3.674-1.091 25.48-7.576a4.984 4.984 0 0 1 6.192 3.356l4.799 16.125 19.473 65.475a4.983 4.983 0 0 1-3.356 6.192Z" fill="url(#d)"/><g opacity=".2" fill="#fff"><path d="M243.747 53.598h-50.692a3.12 3.12 0 0 1-3.121-3.121V35.375a3.12 3.12 0 0 1 3.121-3.121h50.692a3.12 3.12 0 0 1 3.121 3.121v15.102a3.11 3.11 0 0 1-3.121 3.12Z"/><path d="M200.757 50.1a7.174 7.174 0 1 0 0-14.348 7.174 7.174 0 0 0 0 14.347Z"/><path d="M205.825 42.926a5.078 5.078 0 0 1-5.076 5.076 5.078 5.078 0 0 1-5.076-5.076 5.078 5.078 0 0 1 5.076-5.076 5.072 5.072 0 0 1 5.076 5.076ZM231.104 60.603h-25.631a1.421 1.421 0 0 1-1.418-1.418V53.22c0-.78.637-1.418 1.418-1.418h25.631c.78 0 1.418.638 1.418 1.418v5.965c0 .78-.638 1.418-1.418 1.418ZM240.827 47.33h-25.631c-.78 0-1.418-.637-1.418-1.417v-5.966c0-.78.638-1.418 1.418-1.418h25.631c.781 0 1.418.638 1.418 1.418v5.966c0 .78-.637 1.418-1.418 1.418Z"/><path d="M204.34 42.926a3.59 3.59 0 0 1-3.591 3.59 3.59 3.59 0 0 1-3.591-3.59 3.585 3.585 0 0 1 3.591-3.591 3.59 3.59 0 0 1 3.591 3.59Z"/></g><path d="M241.23 51.08h-50.691a3.121 3.121 0 0 1-3.122-3.12V32.858a3.121 3.121 0 0 1 3.122-3.121h50.691a3.12 3.12 0 0 1 3.121 3.121V47.96a3.109 3.109 0 0 1-3.121 3.12Z" fill="#C8C8E0"/><path d="M198.241 47.582a7.174 7.174 0 1 0-.001-14.347 7.174 7.174 0 0 0 .001 14.347Z" fill="#7CA3DF"/><path d="M203.308 40.409a5.078 5.078 0 0 1-5.076 5.076 5.078 5.078 0 0 1-5.076-5.076 5.078 5.078 0 0 1 5.076-5.076 5.072 5.072 0 0 1 5.076 5.076Z" fill="#C8C8E0"/><path d="M228.587 58.086h-25.632a1.42 1.42 0 0 1-1.417-1.417v-5.966c0-.78.637-1.418 1.417-1.418h25.632c.78 0 1.418.638 1.418 1.418v5.966c0 .78-.638 1.417-1.418 1.417ZM238.31 44.814h-25.631c-.78 0-1.418-.638-1.418-1.418V37.43c0-.78.638-1.418 1.418-1.418h25.631c.781 0 1.418.637 1.418 1.418v5.965c0 .78-.637 1.418-1.418 1.418ZM201.823 40.409a3.59 3.59 0 0 1-3.591 3.59 3.59 3.59 0 0 1-3.591-3.59 3.585 3.585 0 0 1 3.591-3.59 3.59 3.59 0 0 1 3.591 3.59Z" fill="#7CA3DF"/><g opacity=".2" fill="#fff"><path d="M416.68 369.285c16.681 0 30.203-13.523 30.203-30.204s-13.522-30.203-30.203-30.203c-16.681 0-30.204 13.522-30.204 30.203 0 16.681 13.523 30.204 30.204 30.204Z"/><path d="M406.713 322.536a19.246 19.246 0 0 1 26.487 6.528c1.678 2.785 2.609 5.696 2.819 8.599-.059.227.176 3.692-2.123 6.175-.277.294-.604.495-.889.663-1.275.772-2.509.747-3.457.352-.897-.419-1.636-1.006-2.122-1.803l-.974-1.603c-.503 2.685-1.921 5.026-4.371 6.511-4.673 2.819-10.898 1.048-13.835-3.809-2.911-4.808-1.56-11.1 3.113-13.928 4.673-2.819 10.773-1.04 13.684 3.776l.226.377.143.235 4.195 6.93.05-.025c.126.311.596.671.906.864.252.101.579.101 1.049-.184l.378-.227c1.216-1.183 1.35-3.523 1.25-4.102-.101-2.517-.923-5.043-2.349-7.4-4.707-7.786-14.993-10.32-22.779-5.613-7.828 4.732-10.37 15.026-5.663 22.804 4.732 7.827 15.026 10.37 22.854 5.638 1.225-.739 2.332-1.477 3.306-2.517.528-.512 1.359-.63 1.803 0 .604.47.579 1.384.026 1.854a18.892 18.892 0 0 1-3.742 2.97 19.258 19.258 0 0 1-26.563-6.553c-5.529-9.145-2.617-20.949 6.578-26.512Zm13.885 22.972c3.256-1.963 4.329-6.477 2.131-10.11-2.164-3.582-6.72-4.824-9.975-2.861-3.306 1.997-4.22 6.544-2.056 10.127 2.198 3.632 6.595 4.841 9.9 2.844Z"/></g><path d="M414.163 366.768c16.681 0 30.204-13.523 30.204-30.204s-13.523-30.203-30.204-30.203-30.204 13.522-30.204 30.203c0 16.681 13.523 30.204 30.204 30.204Z" fill="#5EA9FF"/><path d="M404.196 320.019a19.246 19.246 0 0 1 26.487 6.528c1.678 2.785 2.609 5.696 2.819 8.599-.059.227.176 3.692-2.123 6.175-.277.294-.604.495-.889.663-1.275.772-2.509.747-3.457.352-.898-.419-1.636-1.006-2.122-1.803l-.974-1.603c-.503 2.685-1.921 5.026-4.371 6.511-4.673 2.819-10.898 1.048-13.835-3.809-2.911-4.808-1.56-11.1 3.113-13.928 4.673-2.819 10.772-1.04 13.684 3.776l.226.377.143.235 4.195 6.93.05-.025c.126.311.596.671.906.864.252.101.579.101 1.049-.184l.378-.227c1.216-1.183 1.35-3.523 1.25-4.102-.101-2.517-.923-5.043-2.349-7.4-4.707-7.786-14.993-10.32-22.779-5.613-7.828 4.732-10.37 15.026-5.663 22.804 4.732 7.827 15.026 10.37 22.854 5.638 1.225-.739 2.332-1.477 3.305-2.517.529-.512 1.36-.63 1.804 0 .604.47.579 1.384.025 1.854a18.885 18.885 0 0 1-3.741 2.97 19.258 19.258 0 0 1-26.563-6.553c-5.529-9.145-2.618-20.949 6.578-26.512Zm13.885 22.972c3.255-1.963 4.329-6.477 2.131-10.11-2.164-3.582-6.72-4.824-9.975-2.861-3.306 1.997-4.221 6.544-2.056 10.127 2.198 3.633 6.595 4.841 9.9 2.844Z" fill="#fff"/><g opacity=".2"><path d="m109.953 225.759-14.33-3.415a.647.647 0 0 1-.478-.78l3.759-15.748a.647.647 0 0 1 .78-.478l14.33 3.414a.648.648 0 0 1 .478.781l-3.758 15.748a.657.657 0 0 1-.781.478Z" fill="#fff"/><path d="m104.458 264.277-21.327-5.093a1.239 1.239 0 0 1-.915-1.485l9.212-38.619a1.24 1.24 0 0 1 1.485-.914l21.336 5.093c.663.159 1.065.822.914 1.485l-9.212 38.618a1.245 1.245 0 0 1-1.493.915ZM99.621 211.932l-.755 3.166 3.166.756.756-3.166-3.167-.756ZM108.321 214.018l-.756 3.167 3.167.755.755-3.166-3.166-.756Z" fill="#fff"/><path d="m91.856 253.059.915-3.809 5.563-3.423 1.4-5.873-3.246-5.268 1.023-4.288" stroke="#fff" stroke-miterlimit="10"/><path d="m99.407 231.472-1.191-4.002-2.878 3.037 4.07.965ZM93.19 253.143a1.32 1.32 0 0 1-1.585.974 1.319 1.319 0 0 1-.974-1.586 1.318 1.318 0 0 1 1.586-.973 1.3 1.3 0 0 1 .973 1.585ZM106.665 235.181a1.319 1.319 0 0 1-1.586.973 1.318 1.318 0 0 1-.973-1.586 1.318 1.318 0 0 1 1.585-.973c.705.159 1.141.872.974 1.586Z" fill="#fff"/><path d="m98.904 243.151 5.277-3.247 1.024-4.287" stroke="#fff" stroke-miterlimit="10"/></g><path d="m107.437 223.242-14.33-3.415a.647.647 0 0 1-.479-.78l3.759-15.748a.647.647 0 0 1 .78-.478l14.33 3.414a.648.648 0 0 1 .478.781l-3.758 15.748a.655.655 0 0 1-.78.478Z" fill="#E0E7FF"/><path d="m101.941 261.76-21.327-5.093a1.239 1.239 0 0 1-.915-1.485l9.213-38.619a1.24 1.24 0 0 1 1.484-.914l21.336 5.093c.663.159 1.066.822.915 1.485l-9.213 38.618a1.245 1.245 0 0 1-1.493.915Z" fill="#8C8C8C"/><path d="m97.104 209.415-.755 3.166 3.166.756.756-3.166-3.167-.756ZM105.804 211.501l-.755 3.167 3.166.755.756-3.166-3.167-.756Z" fill="#9B9FB0"/><path d="m89.34 250.542.914-3.809 5.563-3.423 1.4-5.873-3.246-5.268 1.023-4.288" stroke="#E0E7FF" stroke-miterlimit="10"/><path d="m96.89 228.955-1.191-4.002-2.878 3.037 4.07.965ZM90.674 250.626a1.32 1.32 0 0 1-1.586.974 1.319 1.319 0 0 1-.973-1.586 1.318 1.318 0 0 1 1.585-.973 1.3 1.3 0 0 1 .974 1.585ZM104.148 232.664a1.319 1.319 0 0 1-1.586.973 1.318 1.318 0 0 1-.973-1.586 1.317 1.317 0 0 1 1.585-.973c.705.159 1.141.872.974 1.586Z" fill="#E0E7FF"/><path d="m96.387 240.634 5.277-3.247 1.024-4.287" stroke="#E0E7FF" stroke-miterlimit="10"/><path opacity=".2" d="m475.491 248.47 21.063-101.51a1.761 1.761 0 0 0-1.368-2.083l-79.493-15.548-21.024 101.327a3.668 3.668 0 0 0 2.889 4.348l11.927 2.331-2.355 10.823 4.848-3.289 3.097 5.017 2.391-10.991 55.937 10.937a1.754 1.754 0 0 0 2.088-1.362Z" fill="#8089C4"/><path d="M475.848 246.275 400 231.444a3.667 3.667 0 0 1-2.889-4.347l21.021-101.331 79.49 15.546a1.763 1.763 0 0 1 1.368 2.082l-21.06 101.513a1.759 1.759 0 0 1-2.082 1.368Z" fill="#2845AA"/><path d="m476.062 245.177-75.235-15.365a2.776 2.776 0 0 1-2.163-3.285l21.213-102.237 77.966 15.924-21.781 104.963Z" fill="#E8E8E8"/><path d="m497.332 140.16-21.789 105.02M496.289 139.92 474.5 244.94" stroke="#D6DBDE" stroke-width=".831" stroke-miterlimit="10"/><path d="m417.516 246.326-3.096-5.016-4.849 3.288 6.76-31.057 7.942 1.731-6.757 31.054Z" fill="#FBEB8F"/><path d="m472.048 242.141-74.923-15.545 21.774-104.964 74.923 15.545a1.763 1.763 0 0 1 1.369 2.082l-21.06 101.514a1.76 1.76 0 0 1-2.083 1.368Z" fill="#597EFF"/><path d="m424.417 122.783-2.073-.43-21.778 104.964 2.073.43 21.778-104.964Z" fill="#2845AA"/><path d="m416.867 175.377 1.198.248-.63 3.04a16.5 16.5 0 0 1-.112.492 71.398 71.398 0 0 1-.24.98 4.402 4.402 0 0 1-.07.252l.026.005 3.899-4.173 1.595.331-1.305 6.292-1.19-.247.627-3.022c.033-.159.072-.332.117-.518l.133-.552c.048-.174.088-.325.121-.453.04-.132.067-.219.081-.259l-.035-.007-3.917 4.215-1.604-.333 1.306-6.291Zm8.155 3.236-.384 1.85 1.833.381.383-1.851 1.313.272-.998 4.812-1.313-.273.412-1.982-1.833-.381-.412 1.983-1.313-.272.999-4.812 1.313.273Zm8.043 1.641c.548.163.991.392 1.327.689.338.291.568.629.69 1.016.128.388.145.809.051 1.261a2.491 2.491 0 0 1-.539 1.138 2.184 2.184 0 0 1-1.032.678c-.42.133-.923.163-1.508.091l-.432 2.08-1.216-.253.432-2.079c-.542-.168-.984-.397-1.328-.689a2.405 2.405 0 0 1-.706-1.029 2.453 2.453 0 0 1-.051-1.261 2.66 2.66 0 0 1 .526-1.159 2.118 2.118 0 0 1 1.03-.669c.432-.131.945-.153 1.54-.066l.385-1.86 1.216.253-.385 1.859Zm-1.421.735a1.48 1.48 0 0 0-.714.118c-.215.09-.394.228-.536.413a1.554 1.554 0 0 0-.293.656c-.053.258-.054.5-.003.725.057.227.163.423.319.59.161.169.37.298.627.388l.6-2.89Zm.616 3.142c.272.02.512-.016.721-.108a1.26 1.26 0 0 0 .519-.416c.136-.186.231-.408.285-.667a1.548 1.548 0 0 0-.007-.718 1.328 1.328 0 0 0-.319-.59 1.411 1.411 0 0 0-.603-.374l-.596 2.873Zm8.334.213a3.224 3.224 0 0 1-.389 1.031c-.17.29-.381.522-.631.696a2.002 2.002 0 0 1-.832.333c-.31.046-.647.032-1.012-.044a2.752 2.752 0 0 1-.901-.352 2.128 2.128 0 0 1-.631-.637 2.402 2.402 0 0 1-.32-.893 3.213 3.213 0 0 1 .054-1.101c.111-.535.298-.965.562-1.29a1.99 1.99 0 0 1 .986-.678c.393-.121.83-.131 1.312-.031.452.094.832.274 1.138.539.306.266.521.605.644 1.016.124.406.131.876.02 1.411Zm-3.322-.69a2.93 2.93 0 0 0-.07.822.996.996 0 0 0 .226.553c.125.136.305.228.54.277.235.049.433.035.596-.041a.95.95 0 0 0 .418-.419c.116-.203.207-.463.272-.78.066-.317.086-.589.059-.815a.899.899 0 0 0-.218-.542c-.125-.136-.305-.229-.54-.277-.347-.072-.624-.004-.833.204-.202.203-.352.543-.45 1.018Zm7.601-1.014c.541.112.935.414 1.182.907.248.486.288 1.138.118 1.954-.113.547-.288.991-.525 1.334-.235.338-.511.572-.826.702a1.695 1.695 0 0 1-1.019.083 1.877 1.877 0 0 1-.581-.212 1.498 1.498 0 0 1-.375-.317 2.2 2.2 0 0 1-.246-.364l-.071-.015a3.516 3.516 0 0 1-.076.72l-.402 1.939-1.313-.273 1.437-6.926 1.067.221.055.664.061.013c.115-.111.246-.206.391-.287.146-.086.311-.143.495-.173.19-.028.399-.018.628.03Zm-.64.961c-.229-.048-.421-.039-.576.027a.84.84 0 0 0-.389.37 2.683 2.683 0 0 0-.245.693l-.029.141c-.065.312-.09.582-.077.812a.93.93 0 0 0 .199.547c.118.141.298.236.538.286.2.041.376.02.529-.065.152-.085.283-.229.393-.433.11-.204.197-.462.261-.773.098-.47.098-.838-.001-1.103-.091-.27-.292-.438-.603-.502Zm9.582.986-.998 4.811-1.225-.254.49-2.361c.049-.235.1-.464.152-.686.058-.221.115-.423.172-.608l-.027-.005-2.091 3.39-.987-.205-.586-3.955-.035-.007a6.74 6.74 0 0 1-.086.635c-.033.22-.077.462-.132.726l-.483 2.327-1.225-.255.999-4.811 1.859.386.522 3.509 1.893-3.008 1.788.371Zm3.367.597c.646.134 1.11.378 1.393.73.289.348.374.81.254 1.386l-.665 3.208-.916-.19-.121-.706-.035-.007c-.17.142-.341.254-.511.335a1.304 1.304 0 0 1-.543.136 2.536 2.536 0 0 1-.695-.062 1.838 1.838 0 0 1-.733-.317 1.273 1.273 0 0 1-.425-.612c-.082-.256-.086-.557-.015-.904.107-.511.364-.85.772-1.017.41-.172.975-.196 1.697-.07l.842.147.044-.212c.053-.252.024-.451-.087-.597-.105-.144-.275-.241-.51-.289a2.313 2.313 0 0 0-.709-.037 5.131 5.131 0 0 0-.721.108l-.247-.98c.286-.082.593-.128.92-.14.333-.01.67.02 1.011.09Zm-.374 2.735c-.426-.076-.735-.06-.929.046a.71.71 0 0 0-.362.504c-.042.2-.013.356.087.469a.8.8 0 0 0 .432.218c.282.059.537.026.765-.098.229-.131.376-.348.439-.654l.082-.396-.514-.089Zm7.477-.131-1.578-.327-.793 3.825-1.313-.273.793-3.824-1.577-.327.205-.987 4.467.927-.204.986Zm1.966 1.364c-.021.1-.052.222-.094.367-.037.146-.077.294-.12.444a6.606 6.606 0 0 1-.111.4l-.077.241 2.921-2.914 1.577.327-.998 4.811-1.269-.263.398-1.921c.033-.159.075-.331.126-.516.052-.192.101-.368.147-.53.053-.167.091-.294.115-.381l-2.91 2.907-1.577-.327.998-4.811 1.269.263-.395 1.903Zm8.623-.196 1.445.3-2.382 1.914 1.552 2.932-1.49-.309-1.458-2.848-.507 2.441-1.313-.273.998-4.811 1.313.272-.484 2.335 2.326-1.953Zm4.295.79c.647.134 1.111.378 1.393.73.289.348.374.81.255 1.386l-.666 3.208-.916-.19-.12-.706-.036-.007a2.44 2.44 0 0 1-.51.335 1.304 1.304 0 0 1-.543.136 2.533 2.533 0 0 1-.695-.062 1.842 1.842 0 0 1-.734-.317 1.265 1.265 0 0 1-.424-.612c-.082-.256-.087-.557-.015-.904.106-.511.363-.85.771-1.017.41-.172.976-.196 1.697-.07l.843.147.044-.212c.052-.252.023-.451-.088-.597-.105-.144-.275-.241-.51-.289a2.313 2.313 0 0 0-.709-.037 5.131 5.131 0 0 0-.721.108l-.247-.98a3.85 3.85 0 0 1 .921-.14c.333-.011.67.02 1.01.09Zm-.374 2.735c-.425-.076-.735-.06-.929.046a.712.712 0 0 0-.362.504c-.041.2-.012.356.087.469.1.106.245.179.433.218.282.059.537.026.765-.098.229-.131.375-.348.438-.654l.083-.396-.515-.089Z" fill="#E8E8E8"/><path d="m431.725 124.838-5.216 21.339 3.975.971 3.766.921 5.215-21.34-7.74-1.891Z" fill="#064DA4"/><path d="m435.606 130.785-.438-.14c.2-.733.401-1.465.604-2.196l.42.219c-.2.705-.395 1.409-.585 2.11" fill="#fff"/><path d="M435.87 133.038c.216-.705.435-1.407.657-2.106l-2.245-.549-.741 3.029c.78-.111 1.556-.24 2.329-.374Z" fill="#fff"/><path d="M435.161 126.786c-.903.145-1.81.31-2.7.481a134.005 134.005 0 0 1-.812 4.74 90.97 90.97 0 0 0 1.894 1.406c.78-.113 1.555-.241 2.328-.374.465-1.539.946-3.062 1.467-4.58a99.557 99.557 0 0 0-2.177-1.673Z" stroke="#fff" stroke-width=".5" stroke-miterlimit="10"/><path fill-rule="evenodd" clip-rule="evenodd" d="M432.461 127.267v.002-.002Zm.854 2.884.966.236.879-3.599c-.902.145-1.81.311-2.699.481-.132.858-.275 1.713-.426 2.569l.791.193c.276-.421.552-.843.828-1.268l-.339 1.388Zm.503-2.993-.005.009-.425.068c-.088.409-.177.815-.268 1.223.162-.299.323-.6.484-.9v-.001l.209-.39.003-.001.002-.008Z" fill="#fff"/><defs><linearGradient id="a" x1="28.114" y1="269.879" x2="58.08" y2="276.536" gradientUnits="userSpaceOnUse"><stop stop-color="#4446A6"/><stop offset="1" stop-color="#24268A"/></linearGradient><linearGradient id="b" x1=".112" y1="246.26" x2="62.134" y2="275.481" gradientUnits="userSpaceOnUse"><stop stop-color="#fff"/><stop offset="1" stop-color="#fff" stop-opacity="0"/></linearGradient><linearGradient id="c" x1="-8.743" y1="258.815" x2="58.447" y2="290.471" gradientUnits="userSpaceOnUse"><stop stop-color="#fff"/><stop offset="1" stop-color="#fff" stop-opacity="0"/></linearGradient><linearGradient id="d" x1="220.8" y1="108.105" x2="237.096" y2="188.362" gradientUnits="userSpaceOnUse"><stop stop-color="#0A0C53"/><stop offset="1" stop-color="#24268A"/></linearGradient></defs></svg>